<mxfile host="Electron" modified="2024-06-26T09:48:43.065Z" agent="Mozilla/5.0 (Windows NT 10.0; Win64; x64) AppleWebKit/537.36 (KHTML, like Gecko) draw.io/24.2.5 Chrome/120.0.6099.109 Electron/28.1.0 Safari/537.36" etag="8Mqe7YH36Mad8PHcXVF1" version="24.2.5" type="device">
  <diagram name="PÃ¡gina-1" id="rQPEJ-mlK1Z8Gyc1oVHg">
    <mxGraphModel dx="1434" dy="836" grid="1" gridSize="1" guides="1" tooltips="1" connect="1" arrows="1" fold="1" page="1" pageScale="1" pageWidth="827" pageHeight="1169" math="0" shadow="0">
      <root>
        <mxCell id="0" />
        <mxCell id="1" parent="0" />
        <mxCell id="lUh6SS8M5qxQrRI_s8S4-50" value="&lt;font style=&quot;font-size: 14px;&quot;&gt;Low Threshold&lt;/font&gt;" style="rounded=0;whiteSpace=wrap;html=1;" parent="1" vertex="1">
          <mxGeometry x="413.5" y="652" width="110" height="40" as="geometry" />
        </mxCell>
        <mxCell id="lUh6SS8M5qxQrRI_s8S4-51" value="&lt;font style=&quot;font-size: 14px;&quot;&gt;High Threshold&lt;/font&gt;" style="rounded=0;whiteSpace=wrap;html=1;" parent="1" vertex="1">
          <mxGeometry x="413.5" y="278" width="110" height="40" as="geometry" />
        </mxCell>
        <mxCell id="lUh6SS8M5qxQrRI_s8S4-52" value="&lt;font style=&quot;font-size: 14px;&quot;&gt;ABS&lt;/font&gt;" style="rounded=0;whiteSpace=wrap;html=1;" parent="1" vertex="1">
          <mxGeometry x="304" y="460" width="110" height="50" as="geometry" />
        </mxCell>
        <mxCell id="lUh6SS8M5qxQrRI_s8S4-53" value="&lt;font style=&quot;font-size: 17px;&quot;&gt;&amp;gt;&lt;/font&gt;" style="rounded=0;whiteSpace=wrap;html=1;" parent="1" vertex="1">
          <mxGeometry x="600" y="365" width="40" height="80" as="geometry" />
        </mxCell>
        <mxCell id="lUh6SS8M5qxQrRI_s8S4-55" value="&lt;font style=&quot;font-size: 17px;&quot;&gt;&amp;gt;&lt;/font&gt;" style="rounded=0;whiteSpace=wrap;html=1;" parent="1" vertex="1">
          <mxGeometry x="600" y="525" width="40" height="80" as="geometry" />
        </mxCell>
        <mxCell id="lUh6SS8M5qxQrRI_s8S4-56" value="" style="endArrow=classic;html=1;rounded=0;exitX=1;exitY=0.5;exitDx=0;exitDy=0;entryX=0;entryY=0.75;entryDx=0;entryDy=0;" parent="1" source="lUh6SS8M5qxQrRI_s8S4-52" target="lUh6SS8M5qxQrRI_s8S4-53" edge="1">
          <mxGeometry width="50" height="50" relative="1" as="geometry">
            <mxPoint x="490" y="530" as="sourcePoint" />
            <mxPoint x="540" y="480" as="targetPoint" />
            <Array as="points">
              <mxPoint x="450" y="485" />
              <mxPoint x="450" y="425" />
            </Array>
          </mxGeometry>
        </mxCell>
        <mxCell id="lUh6SS8M5qxQrRI_s8S4-57" value="" style="endArrow=classic;html=1;rounded=0;entryX=0;entryY=0.25;entryDx=0;entryDy=0;" parent="1" target="lUh6SS8M5qxQrRI_s8S4-55" edge="1">
          <mxGeometry width="50" height="50" relative="1" as="geometry">
            <mxPoint x="450" y="480" as="sourcePoint" />
            <mxPoint x="540" y="480" as="targetPoint" />
            <Array as="points">
              <mxPoint x="450" y="545" />
            </Array>
          </mxGeometry>
        </mxCell>
        <mxCell id="lUh6SS8M5qxQrRI_s8S4-58" value="" style="endArrow=classic;html=1;rounded=0;exitX=1;exitY=0.5;exitDx=0;exitDy=0;entryX=0;entryY=0.25;entryDx=0;entryDy=0;" parent="1" source="lUh6SS8M5qxQrRI_s8S4-51" target="lUh6SS8M5qxQrRI_s8S4-53" edge="1">
          <mxGeometry width="50" height="50" relative="1" as="geometry">
            <mxPoint x="490" y="530" as="sourcePoint" />
            <mxPoint x="540" y="480" as="targetPoint" />
            <Array as="points">
              <mxPoint x="560" y="298" />
              <mxPoint x="560" y="385" />
            </Array>
          </mxGeometry>
        </mxCell>
        <mxCell id="lUh6SS8M5qxQrRI_s8S4-59" value="" style="endArrow=classic;html=1;rounded=0;exitX=1;exitY=0.5;exitDx=0;exitDy=0;entryX=0;entryY=0.75;entryDx=0;entryDy=0;" parent="1" source="lUh6SS8M5qxQrRI_s8S4-50" target="lUh6SS8M5qxQrRI_s8S4-55" edge="1">
          <mxGeometry width="50" height="50" relative="1" as="geometry">
            <mxPoint x="490" y="530" as="sourcePoint" />
            <mxPoint x="540" y="480" as="targetPoint" />
            <Array as="points">
              <mxPoint x="560" y="672" />
              <mxPoint x="560" y="585" />
            </Array>
          </mxGeometry>
        </mxCell>
        <mxCell id="lUh6SS8M5qxQrRI_s8S4-60" value="" style="endArrow=classic;html=1;rounded=0;" parent="1" edge="1">
          <mxGeometry width="50" height="50" relative="1" as="geometry">
            <mxPoint x="264" y="484.65999999999997" as="sourcePoint" />
            <mxPoint x="304" y="484.65999999999997" as="targetPoint" />
          </mxGeometry>
        </mxCell>
        <mxCell id="lUh6SS8M5qxQrRI_s8S4-62" value="&lt;font style=&quot;font-size: 14px;&quot;&gt;HDR&lt;/font&gt;&lt;div&gt;&lt;font style=&quot;font-size: 14px;&quot;&gt;Channel&amp;nbsp;&lt;/font&gt;&lt;span style=&quot;font-size: 14px; background-color: initial;&quot;&gt;Output&lt;/span&gt;&lt;/div&gt;" style="text;html=1;align=center;verticalAlign=middle;whiteSpace=wrap;rounded=0;" parent="1" vertex="1">
          <mxGeometry x="150" y="455" width="110" height="60" as="geometry" />
        </mxCell>
        <mxCell id="lUh6SS8M5qxQrRI_s8S4-63" value="" style="endArrow=classic;html=1;rounded=0;exitX=1;exitY=0.5;exitDx=0;exitDy=0;entryX=0;entryY=0.5;entryDx=0;entryDy=0;" parent="1" source="lUh6SS8M5qxQrRI_s8S4-53" target="lUh6SS8M5qxQrRI_s8S4-81" edge="1">
          <mxGeometry width="50" height="50" relative="1" as="geometry">
            <mxPoint x="518" y="405" as="sourcePoint" />
            <mxPoint x="1198.75" y="278.2499999999999" as="targetPoint" />
            <Array as="points">
              <mxPoint x="790" y="405" />
              <mxPoint x="790" y="280" />
              <mxPoint x="1118" y="280" />
              <mxPoint x="1118" y="346" />
            </Array>
          </mxGeometry>
        </mxCell>
        <mxCell id="lUh6SS8M5qxQrRI_s8S4-64" value="&lt;font style=&quot;font-size: 14px;&quot;&gt;&amp;nbsp;Input &amp;gt;&amp;nbsp;&lt;/font&gt;&lt;span style=&quot;font-size: 14px;&quot;&gt;High_TH&lt;/span&gt;" style="text;html=1;align=center;verticalAlign=middle;whiteSpace=wrap;rounded=0;" parent="1" vertex="1">
          <mxGeometry x="647" y="371.25" width="110" height="30" as="geometry" />
        </mxCell>
        <mxCell id="lUh6SS8M5qxQrRI_s8S4-65" value="" style="endArrow=classic;html=1;rounded=0;exitX=1.002;exitY=0.532;exitDx=0;exitDy=0;entryX=0;entryY=0.75;entryDx=0;entryDy=0;entryPerimeter=0;exitPerimeter=0;fillColor=#a20025;strokeColor=#6F0000;strokeWidth=4;" parent="1" source="lUh6SS8M5qxQrRI_s8S4-55" target="lUh6SS8M5qxQrRI_s8S4-87" edge="1">
          <mxGeometry width="50" height="50" relative="1" as="geometry">
            <mxPoint x="518" y="567" as="sourcePoint" />
            <mxPoint x="718" y="567" as="targetPoint" />
            <Array as="points">
              <mxPoint x="808" y="567" />
              <mxPoint x="808" y="444" />
            </Array>
          </mxGeometry>
        </mxCell>
        <mxCell id="lUh6SS8M5qxQrRI_s8S4-66" value="&lt;font style=&quot;font-size: 14px;&quot;&gt;Input &amp;lt; Low_TH&lt;/font&gt;" style="text;html=1;align=center;verticalAlign=middle;whiteSpace=wrap;rounded=0;" parent="1" vertex="1">
          <mxGeometry x="647" y="535.75" width="110" height="30" as="geometry" />
        </mxCell>
        <mxCell id="lUh6SS8M5qxQrRI_s8S4-67" value="" style="rounded=0;whiteSpace=wrap;html=1;" parent="1" vertex="1">
          <mxGeometry x="935.25" y="386.75" width="118" height="187" as="geometry" />
        </mxCell>
        <mxCell id="lUh6SS8M5qxQrRI_s8S4-68" value="" style="triangle;whiteSpace=wrap;html=1;" parent="1" vertex="1">
          <mxGeometry x="935.25" y="555.75" width="10" height="10" as="geometry" />
        </mxCell>
        <mxCell id="lUh6SS8M5qxQrRI_s8S4-69" value="" style="endArrow=classic;html=1;rounded=0;exitX=0.5;exitY=0;exitDx=0;exitDy=0;" parent="1" source="lUh6SS8M5qxQrRI_s8S4-70" edge="1">
          <mxGeometry width="50" height="50" relative="1" as="geometry">
            <mxPoint x="893.25" y="559.75" as="sourcePoint" />
            <mxPoint x="935.25" y="560.55" as="targetPoint" />
            <Array as="points">
              <mxPoint x="895.25" y="560.75" />
            </Array>
          </mxGeometry>
        </mxCell>
        <mxCell id="lUh6SS8M5qxQrRI_s8S4-70" value="clk@3.2MHz" style="text;html=1;align=center;verticalAlign=middle;whiteSpace=wrap;rounded=0;" parent="1" vertex="1">
          <mxGeometry x="845.25" y="565.75" width="100" height="16.5" as="geometry" />
        </mxCell>
        <mxCell id="lUh6SS8M5qxQrRI_s8S4-71" value="" style="endArrow=classic;html=1;rounded=0;" parent="1" edge="1">
          <mxGeometry width="50" height="50" relative="1" as="geometry">
            <mxPoint x="845.25" y="638.75" as="sourcePoint" />
            <mxPoint x="935.25" y="540.46" as="targetPoint" />
            <Array as="points">
              <mxPoint x="845.25" y="540.75" />
            </Array>
          </mxGeometry>
        </mxCell>
        <mxCell id="lUh6SS8M5qxQrRI_s8S4-72" value="select_mask" style="text;html=1;align=center;verticalAlign=middle;whiteSpace=wrap;rounded=0;" parent="1" vertex="1">
          <mxGeometry x="935.25" y="524.75" width="73.5" height="30" as="geometry" />
        </mxCell>
        <mxCell id="lUh6SS8M5qxQrRI_s8S4-73" value="" style="endArrow=classic;html=1;rounded=0;entryX=0;entryY=0.5;entryDx=0;entryDy=0;fillColor=#e3c800;strokeColor=#B09500;strokeWidth=4;" parent="1" target="lUh6SS8M5qxQrRI_s8S4-89" edge="1">
          <mxGeometry width="50" height="50" relative="1" as="geometry">
            <mxPoint x="1118" y="372" as="sourcePoint" />
            <mxPoint x="838" y="425" as="targetPoint" />
            <Array as="points">
              <mxPoint x="808" y="372" />
              <mxPoint x="808" y="424" />
            </Array>
          </mxGeometry>
        </mxCell>
        <mxCell id="lUh6SS8M5qxQrRI_s8S4-74" value="reset" style="text;html=1;align=center;verticalAlign=middle;whiteSpace=wrap;rounded=0;" parent="1" vertex="1">
          <mxGeometry x="938" y="390" width="33" height="30" as="geometry" />
        </mxCell>
        <mxCell id="lUh6SS8M5qxQrRI_s8S4-75" value="count_enable" style="text;html=1;align=center;verticalAlign=middle;whiteSpace=wrap;rounded=0;" parent="1" vertex="1">
          <mxGeometry x="935.25" y="416.75" width="82.75" height="30" as="geometry" />
        </mxCell>
        <mxCell id="lUh6SS8M5qxQrRI_s8S4-76" value="" style="endArrow=classic;html=1;rounded=0;fillColor=#a20025;strokeColor=#6F0000;strokeWidth=4;" parent="1" edge="1">
          <mxGeometry width="50" height="50" relative="1" as="geometry">
            <mxPoint x="875.25" y="433.75" as="sourcePoint" />
            <mxPoint x="935.25" y="433.75" as="targetPoint" />
          </mxGeometry>
        </mxCell>
        <mxCell id="lUh6SS8M5qxQrRI_s8S4-77" value="selected_bit" style="text;html=1;align=center;verticalAlign=middle;whiteSpace=wrap;rounded=0;" parent="1" vertex="1">
          <mxGeometry x="978.75" y="465.25" width="74.5" height="30" as="geometry" />
        </mxCell>
        <mxCell id="lUh6SS8M5qxQrRI_s8S4-78" value="&lt;font style=&quot;font-size: 14px;&quot;&gt;17 bit counter&lt;/font&gt;" style="text;html=1;align=center;verticalAlign=middle;whiteSpace=wrap;rounded=0;" parent="1" vertex="1">
          <mxGeometry x="946.75" y="582.25" width="88.5" height="30" as="geometry" />
        </mxCell>
        <mxCell id="lUh6SS8M5qxQrRI_s8S4-79" value="" style="rounded=0;whiteSpace=wrap;html=1;" parent="1" vertex="1">
          <mxGeometry x="1198.75" y="331.25" width="40" height="95" as="geometry" />
        </mxCell>
        <mxCell id="lUh6SS8M5qxQrRI_s8S4-80" value="Q" style="text;html=1;align=center;verticalAlign=middle;whiteSpace=wrap;rounded=0;" parent="1" vertex="1">
          <mxGeometry x="1218.75" y="331.25" width="20" height="30" as="geometry" />
        </mxCell>
        <mxCell id="lUh6SS8M5qxQrRI_s8S4-81" value="S" style="text;html=1;align=center;verticalAlign=middle;whiteSpace=wrap;rounded=0;" parent="1" vertex="1">
          <mxGeometry x="1198.75" y="331.25" width="20" height="30" as="geometry" />
        </mxCell>
        <mxCell id="lUh6SS8M5qxQrRI_s8S4-82" value="" style="triangle;whiteSpace=wrap;html=1;" parent="1" vertex="1">
          <mxGeometry x="1198.75" y="401.25" width="10" height="10" as="geometry" />
        </mxCell>
        <mxCell id="lUh6SS8M5qxQrRI_s8S4-83" value="clk@3.2MHz" style="text;html=1;align=center;verticalAlign=middle;whiteSpace=wrap;rounded=0;" parent="1" vertex="1">
          <mxGeometry x="1108.75" y="409.75" width="100" height="16.5" as="geometry" />
        </mxCell>
        <mxCell id="lUh6SS8M5qxQrRI_s8S4-84" value="" style="endArrow=classic;html=1;rounded=0;exitX=0.5;exitY=0;exitDx=0;exitDy=0;" parent="1" edge="1">
          <mxGeometry width="50" height="50" relative="1" as="geometry">
            <mxPoint x="1158.75" y="411.25" as="sourcePoint" />
            <mxPoint x="1198.75" y="406.04999999999995" as="targetPoint" />
            <Array as="points">
              <mxPoint x="1158.75" y="406.25" />
            </Array>
          </mxGeometry>
        </mxCell>
        <mxCell id="lUh6SS8M5qxQrRI_s8S4-85" value="R" style="text;html=1;align=center;verticalAlign=middle;whiteSpace=wrap;rounded=0;" parent="1" vertex="1">
          <mxGeometry x="1198.75" y="356.25" width="20" height="30" as="geometry" />
        </mxCell>
        <mxCell id="lUh6SS8M5qxQrRI_s8S4-86" value="" style="endArrow=classic;html=1;rounded=0;entryX=0;entryY=0.5;entryDx=0;entryDy=0;exitX=1.003;exitY=0.531;exitDx=0;exitDy=0;exitPerimeter=0;fillColor=#e3c800;strokeColor=#B09500;strokeWidth=4;" parent="1" source="lUh6SS8M5qxQrRI_s8S4-77" target="lUh6SS8M5qxQrRI_s8S4-85" edge="1">
          <mxGeometry width="50" height="50" relative="1" as="geometry">
            <mxPoint x="1238.75" y="498.75" as="sourcePoint" />
            <mxPoint x="1158.75" y="488.75" as="targetPoint" />
            <Array as="points">
              <mxPoint x="1118.75" y="480.75" />
              <mxPoint x="1118.75" y="371.75" />
            </Array>
          </mxGeometry>
        </mxCell>
        <mxCell id="lUh6SS8M5qxQrRI_s8S4-87" value="" style="shape=or;whiteSpace=wrap;html=1;" parent="1" vertex="1">
          <mxGeometry x="850" y="413.75" width="30" height="40" as="geometry" />
        </mxCell>
        <mxCell id="lUh6SS8M5qxQrRI_s8S4-89" value="" style="ellipse;whiteSpace=wrap;html=1;aspect=fixed;" parent="1" vertex="1">
          <mxGeometry x="840" y="418.75" width="10" height="10" as="geometry" />
        </mxCell>
        <mxCell id="lUh6SS8M5qxQrRI_s8S4-90" value="" style="endArrow=classic;html=1;rounded=0;" parent="1" edge="1">
          <mxGeometry width="50" height="50" relative="1" as="geometry">
            <mxPoint x="790" y="405" as="sourcePoint" />
            <mxPoint x="934" y="405" as="targetPoint" />
          </mxGeometry>
        </mxCell>
        <mxCell id="lUh6SS8M5qxQrRI_s8S4-92" value="" style="endArrow=classic;html=1;rounded=0;" parent="1" edge="1">
          <mxGeometry width="50" height="50" relative="1" as="geometry">
            <mxPoint x="1238.75" y="346.05" as="sourcePoint" />
            <mxPoint x="1260" y="346.36" as="targetPoint" />
          </mxGeometry>
        </mxCell>
        <mxCell id="lUh6SS8M5qxQrRI_s8S4-93" value="&lt;h1 id=&quot;gen-h1-1-00000001&quot; class=&quot;navigable-headline&quot;&gt;&lt;span class=&quot;code char&quot;&gt;&lt;font style=&quot;font-size: 14px;&quot;&gt;Î±&lt;/font&gt;&lt;/span&gt;&lt;/h1&gt;" style="text;html=1;align=center;verticalAlign=middle;whiteSpace=wrap;rounded=0;" parent="1" vertex="1">
          <mxGeometry x="1257" y="330" width="20" height="26.25" as="geometry" />
        </mxCell>
        <mxCell id="lUh6SS8M5qxQrRI_s8S4-94" value="&lt;font style=&quot;font-size: 14px;&quot;&gt;MASK SELECT&lt;/font&gt;" style="rounded=0;whiteSpace=wrap;html=1;" parent="1" vertex="1">
          <mxGeometry x="790" y="640" width="110" height="40" as="geometry" />
        </mxCell>
        <mxCell id="lUh6SS8M5qxQrRI_s8S4-95" value="" style="ellipse;whiteSpace=wrap;html=1;aspect=fixed;strokeColor=#B09500;fillColor=#e3c800;fontColor=#000000;" parent="1" vertex="1">
          <mxGeometry x="1117" y="370" width="4" height="4" as="geometry" />
        </mxCell>
        <mxCell id="lUh6SS8M5qxQrRI_s8S4-97" value="" style="ellipse;whiteSpace=wrap;html=1;aspect=fixed;strokeColor=none;fillColor=#000000;" parent="1" vertex="1">
          <mxGeometry x="788" y="402.75" width="4" height="4" as="geometry" />
        </mxCell>
      </root>
    </mxGraphModel>
  </diagram>
</mxfile>
